<svg preserveAspectRatio="none" overflow="visible" style="display: block;" width="19.9" height="18" viewBox="0 0 19.9 18" fill="none" xmlns="http://www.w3.org/2000/svg">
<g id="Group">
<path id="Union" fill-rule="evenodd" clip-rule="evenodd" d="M1 0C0.447715 0 0 0.447715 0 1C0 1.55228 0.447715 2 1 2H15.9C17.0477 2 17.9 2.85228 17.9 4V14C17.9 15.1477 17.0477 16 15.9 16H15C14.4477 16 14 16.4477 14 17C14 17.5523 14.4477 18 15 18H15.9C18.1523 18 19.9 16.2523 19.9 14V4C19.9 1.74772 18.1523 0 15.9 0H1ZM1 6C0.447715 6 0 6.44772 0 7C0 7.55228 0.447715 8 1 8C5.94772 8 10 12.0523 10 17C10 17.5523 10.4477 18 11 18C11.5523 18 12 17.5523 12 17C12 10.9477 7.05228 6 1 6ZM0 11C0 10.4477 0.447715 10 1 10C4.85228 10 8 13.1477 8 17C8 17.5523 7.55228 18 7 18C6.44772 18 6 17.5523 6 17C6 14.2523 3.74772 12 1 12C0.447715 12 0 11.5523 0 11ZM1 14C0.447715 14 0 14.4477 0 15C0 15.5523 0.447715 16 1 16C1.54772 16 2 16.4523 2 17C2 17.5523 2.44772 18 3 18C3.55228 18 4 17.5523 4 17C4 15.3477 2.65228 14 1 14Z" fill="white"/>
</g>
</svg>
