<svg preserveAspectRatio="none" overflow="visible" style="display: block;" width="19.9567" height="19.9129" viewBox="0 0 19.9567 19.9129" fill="none" xmlns="http://www.w3.org/2000/svg">
<g id="Group">
<path id="Union" fill-rule="evenodd" clip-rule="evenodd" d="M4.82291 7.33754L7.07692 1.92792L7.08619 1.90639C7.67017 0.592435 8.9905 -0.12162 10.3951 0.0170516C12.0495 0.169752 13.2 1.53987 13.2 3.21253V5.61253H17C18.7479 5.61253 20.337 7.22098 19.876 9.13102L18.3806 16.5086L18.3803 16.5103C17.9867 18.4744 16.2786 19.9125 14.2 19.9125H8.9L8.86921 19.9126C8.69655 19.9133 8.34601 19.9148 7.97285 19.7615L6.07713 19.2876C5.73076 19.2139 5.43311 19.0632 5.19271 18.8584C4.95135 18.9568 4.68547 19.0124 4.4 19.0124H3.2C1.44772 19.0124 0 17.5647 0 15.8124V10.5124C0 8.76013 1.44772 7.31241 3.2 7.31241H4.5C4.60971 7.31241 4.71756 7.321 4.82291 7.33754ZM6.5 8.51253L8.91794 2.70948C9.13527 2.23041 9.61048 1.94857 10.2005 2.00757L10.2095 2.00842C10.7526 2.0578 11.2 2.48671 11.2 3.21253V6.11253C11.2 6.48978 11.3301 6.88186 11.6304 7.18214C11.9307 7.48242 12.3228 7.61253 12.7 7.61253H17C17.6448 7.61253 18.0497 8.19057 17.9299 8.67C17.9262 8.68454 17.9229 8.69917 17.9199 8.71387L16.4199 16.1139L16.4194 16.1164C16.2124 17.1514 15.3208 17.9125 14.2 17.9125H8.9C8.8474 17.9125 8.81302 17.9124 8.78123 17.9115C8.75363 17.9106 8.73676 17.9092 8.72649 17.908C8.66748 17.8802 8.60587 17.8582 8.54254 17.8424L6.54254 17.3424C6.53726 17.3411 6.53198 17.3398 6.52668 17.3386C6.55178 17.2521 6.57176 17.1646 6.58639 17.0768C6.59545 17.0225 6.6 16.9675 6.6 16.9124V9.41241C6.6 9.19066 6.5649 8.97649 6.5 8.77518V8.51253ZM4.5 9.31241H3.2C2.55228 9.31241 2 9.8647 2 10.5124V15.8124C2 16.4601 2.55228 17.0124 3.2 17.0124H4.4C4.41296 17.0124 4.44931 17.0081 4.5 16.9612V9.31241Z" fill="#FCFCFD" fill-opacity="0.8"/>
</g>
</svg>
