<svg preserveAspectRatio="none" overflow="visible" style="display: block;" width="19.9975" height="20" viewBox="0 0 19.9975 20" fill="none" xmlns="http://www.w3.org/2000/svg">
<path id="Icon" fill-rule="evenodd" clip-rule="evenodd" d="M9 2C5.13401 2 2 5.13401 2 9C2 12.866 5.13401 16 9 16C10.9327 16 12.6809 15.218 13.9487 13.9508C15.2171 12.6829 16 10.9338 16 9C16 5.13401 12.866 2 9 2ZM0 9C0 4.02944 4.02944 0 9 0C13.9706 0 18 4.02944 18 9C18 11.1252 17.2624 13.0796 16.0308 14.619L19.7046 18.2929C20.0952 18.6834 20.0952 19.3166 19.7046 19.7071C19.3141 20.0976 18.6809 20.0976 18.2904 19.7071L14.6163 16.033C13.0773 17.2633 11.124 18 9 18C4.02944 18 0 13.9706 0 9Z" fill="#17191C"/>
</svg>
